<?xml version="1.0" encoding="iso-8859-1"?>
<!-- Generator: Adobe Illustrator 19.0.0, SVG Export Plug-In . SVG Version: 6.00 Build 0)  -->
<svg version="1.1" id="Capa_1" xmlns="http://www.w3.org/2000/svg" xmlns:xlink="http://www.w3.org/1999/xlink" x="0px" y="0px"
	 viewBox="0 0 512.03 512.03" style="enable-background:new 0 0 512.03 512.03;" xml:space="preserve">
<g transform="translate(0 -1)">
	<polygon style="fill:#BDC3C7;" points="267.296,78.004 290.727,165.911 221.303,165.911 244.734,78.004 	"/>
	<g>
		<path style="fill:#2C2F38;" d="M56.422,443.606h78.102v52.068c0,9.585-7.771,17.356-17.356,17.356h-43.39
			c-9.585,0-17.356-7.771-17.356-17.356V443.606z"/>
		<path style="fill:#2C2F38;" d="M377.507,443.606h78.102v52.068c0,9.585-7.771,17.356-17.356,17.356h-43.39
			c-9.585,0-17.356-7.771-17.356-17.356V443.606z"/>
	</g>
	<g>
		<path style="fill:#41767F;" d="M56.43,296.081c-3.051,0.005-5.88-1.595-7.449-4.212l-26.034-43.39
			c-2.467-4.109-1.135-9.44,2.975-11.907c4.109-2.467,9.44-1.135,11.907,2.975l26.034,43.39c1.608,2.68,1.652,6.017,0.114,8.737
			C62.438,294.395,59.556,296.078,56.43,296.081z"/>
		<path style="fill:#41767F;" d="M455.6,296.081c-3.125-0.003-6.008-1.686-7.546-4.407c-1.538-2.72-1.495-6.058,0.114-8.737
			l26.034-43.39c2.467-4.109,7.797-5.441,11.907-2.975c4.109,2.467,5.441,7.797,2.975,11.907l-26.034,43.39
			C461.48,294.486,458.651,296.086,455.6,296.081z"/>
	</g>
	<path style="fill:#B0D3F0;" d="M347.29,157.233H164.74c-18.685,0-35.937,10.012-45.208,26.235L65.1,278.725v43.39H446.93v-43.39
		l-54.432-95.257C383.228,167.245,365.975,157.233,347.29,157.233z"/>
	<path style="fill:#46B29D;" d="M56.422,278.725h399.186c14.378,0,26.034,11.656,26.034,26.034v130.169
		c0,14.378-11.656,26.034-26.034,26.034H56.422c-14.378,0-26.034-11.656-26.034-26.034V304.759
		C30.388,290.381,42.044,278.725,56.422,278.725z"/>
	<g>
		<path style="fill:#F9EAB0;" d="M133.447,355.607l-52.068-6.508c-4.343-0.543-7.602-4.234-7.602-8.611v-18.373
			c0-4.793,3.885-8.678,8.678-8.678h52.068c4.793,0,8.678,3.885,8.678,8.678v24.882c0,2.489-1.069,4.858-2.935,6.506
			C138.401,355.149,135.917,355.916,133.447,355.607z"/>
		<path style="fill:#F9EAB0;" d="M378.583,355.607l52.068-6.508c4.343-0.543,7.602-4.234,7.602-8.611v-18.373
			c0-4.793-3.885-8.678-8.678-8.678h-52.068c-4.793,0-8.678,3.885-8.678,8.678v24.882c0,2.489,1.069,4.858,2.935,6.506
			C373.629,355.149,376.113,355.916,378.583,355.607z"/>
	</g>
	<g>
		<path style="fill:#46B29D;" d="M21.71,217.979h17.356c4.793,0,8.678,3.885,8.678,8.678v17.356c0,4.793-3.885,8.678-8.678,8.678
			H21.71c-9.585,0-17.356-7.771-17.356-17.356C4.354,225.75,12.125,217.979,21.71,217.979z"/>
		<path style="fill:#46B29D;" d="M490.32,252.691h-17.356c-4.793,0-8.678-3.885-8.678-8.678v-17.356
			c0-4.793,3.885-8.678,8.678-8.678h17.356c9.585,0,17.356,7.771,17.356,17.356C507.676,244.921,499.906,252.691,490.32,252.691z"/>
	</g>
	<path style="fill:#ECF0F1;" d="M403.54,408.894c-0.07,9.556-7.8,17.286-17.356,17.356H125.846
		c-9.574-0.028-17.328-7.782-17.356-17.356c0.069-9.557,7.799-17.287,17.356-17.356h260.339
		C395.758,391.566,403.512,399.321,403.54,408.894z"/>
	<g>
		<rect x="169.235" y="391.539" style="fill:#BDC3C7;" width="17.356" height="34.712"/>
		<rect x="334.117" y="391.539" style="fill:#BDC3C7;" width="17.356" height="34.712"/>
	</g>
	<g>
		<path style="fill:#FFFFFF;" d="M151.879,209.301c-3.509-0.001-6.673-2.115-8.016-5.357c-1.343-3.242-0.601-6.974,1.88-9.456
			l8.678-8.678c3.397-3.336,8.848-3.312,12.215,0.055c3.367,3.367,3.392,8.818,0.055,12.215l-8.678,8.678
			C156.389,208.389,154.181,209.304,151.879,209.301z"/>
		<path style="fill:#FFFFFF;" d="M160.557,244.013c-3.509-0.001-6.673-2.115-8.016-5.357c-1.343-3.242-0.601-6.974,1.88-9.456
			l34.712-34.712c3.397-3.336,8.848-3.312,12.215,0.055c3.367,3.367,3.392,8.818,0.055,12.215l-34.712,34.712
			C165.067,243.101,162.859,244.016,160.557,244.013z"/>
	</g>
	<circle style="fill:#E64C3C;" cx="256.015" cy="63.251" r="26.034"/>
	<g>
		<path style="fill:#90BAE1;" d="M170.201,113.759c-3.316,0.004-6.345-1.882-7.805-4.86c-14.023-28.815-14.023-62.477,0-91.292
			c2.124-4.278,7.304-6.037,11.594-3.937c4.289,2.1,6.077,7.271,4,11.572c-11.672,23.996-11.672,52.025,0,76.021
			c1.313,2.689,1.15,5.865-0.433,8.405C175.973,112.207,173.194,113.753,170.201,113.759L170.201,113.759z"/>
		<path style="fill:#90BAE1;" d="M203.176,101.954c-3.124,0.003-6.008-1.674-7.551-4.39c-12.045-21.29-12.045-47.337,0-68.627
			c2.371-4.159,7.663-5.612,11.825-3.245c4.162,2.366,5.621,7.657,3.259,11.822c-9.017,15.974-9.017,35.501,0,51.475
			c1.525,2.685,1.509,5.978-0.042,8.647C209.116,100.305,206.264,101.949,203.176,101.954L203.176,101.954z"/>
		<path style="fill:#90BAE1;" d="M308.854,101.954c-3.088-0.004-5.941-1.649-7.492-4.319c-1.551-2.67-1.567-5.963-0.042-8.647
			c9.017-15.974,9.017-35.501,0-51.475c-1.532-2.695-1.51-6.002,0.058-8.676c1.568-2.674,4.443-4.309,7.542-4.288
			c3.1,0.021,5.953,1.693,7.485,4.388c12.045,21.29,12.045,47.337,0,68.627C314.862,100.28,311.978,101.956,308.854,101.954z"/>
		<path style="fill:#90BAE1;" d="M341.829,113.759c-2.993-0.005-5.772-1.551-7.355-4.091c-1.583-2.54-1.747-5.716-0.433-8.405
			c11.672-23.996,11.672-52.025,0-76.021c-2.109-4.306-0.327-9.506,3.979-11.614c4.306-2.109,9.506-0.327,11.614,3.979
			c14.023,28.815,14.023,62.477,0,91.292C348.174,111.876,345.145,113.763,341.829,113.759z"/>
		<path style="fill:#90BAE1;" d="M137.396,125.471c-3.399,0.005-6.487-1.976-7.898-5.068c-8.197-17.934-12.404-37.434-12.33-57.152
			c-0.073-19.719,4.134-39.218,12.331-57.152c1.282-2.831,3.98-4.761,7.074-5.058s6.11,1.083,7.908,3.618
			c1.798,2.535,2.102,5.839,0.798,8.66c-7.153,15.671-10.822,32.706-10.754,49.932c-0.067,17.226,3.602,34.261,10.754,49.932
			c1.227,2.685,1.006,5.81-0.588,8.294C143.096,123.962,140.349,125.466,137.396,125.471L137.396,125.471z"/>
		<path style="fill:#90BAE1;" d="M374.634,125.471c-2.952-0.004-5.7-1.509-7.293-3.994c-1.594-2.485-1.815-5.61-0.588-8.294
			c7.152-15.671,10.822-32.706,10.754-49.932c0.067-17.226-3.602-34.261-10.754-49.932c-1.304-2.821-1-6.124,0.798-8.66
			s4.814-3.916,7.908-3.618c3.094,0.297,5.792,2.227,7.074,5.058c8.197,17.934,12.404,37.434,12.331,57.152
			c0.073,19.719-4.134,39.218-12.331,57.153C381.119,123.493,378.032,125.474,374.634,125.471z"/>
	</g>
</g>
<g>
</g>
<g>
</g>
<g>
</g>
<g>
</g>
<g>
</g>
<g>
</g>
<g>
</g>
<g>
</g>
<g>
</g>
<g>
</g>
<g>
</g>
<g>
</g>
<g>
</g>
<g>
</g>
<g>
</g>
</svg>
