<svg height="512pt" viewBox="0 0 512 512" width="512pt" xmlns="http://www.w3.org/2000/svg"><path d="m512 256c0 141.386719-114.613281 256-256 256s-256-114.613281-256-256 114.613281-256 256-256 256 114.613281 256 256zm0 0" fill="#ff328e"/><path d="m512 256c0-10.769531-.671875-21.378906-1.964844-31.796875l-79.464844-79.464844-174.570312-98.804687-174.570312 98.804687v198.734375l168.453124 168.449219c2.03125.046875 4.070313.078125 6.117188.078125 141.386719 0 256-114.613281 256-256zm0 0" fill="#c50a5b"/><path d="m256 45.933594 174.570312 98.804687v198.734375l-174.570312-93.980468zm0 0" fill="#008878"/><path d="m256 45.933594-174.570312 98.804687v198.734375l174.570312-93.980468zm0 0" fill="#00ceb4"/><path d="m256 456.066406 174.570312-112.59375-174.570312-93.980468-174.570312 93.980468zm0 0" fill="#00efd1"/><path d="m315.058594 242.257812c0-13.605468-11.132813-24.738281-24.742188-24.738281h-18.96875c11.273438-5.640625 19.019532-17.289062 19.019532-30.75 0-18.984375-15.386719-34.371093-34.367188-34.371093-18.984375 0-34.371094 15.386718-34.371094 34.371093 0 13.460938 7.746094 25.109375 19.023438 30.75h-18.972656c-13.605469 0-24.738282 11.132813-24.738282 24.738281v54.464844h18.398438v-37.796875c0-2.707031 2.195312-4.902343 4.902344-4.902343 2.707031 0 4.902343 2.195312 4.902343 4.902343v124.746094h23.109375v-62.074219c0-4.277344 3.46875-7.746094 7.742188-7.746094 4.277344 0 7.746094 3.46875 7.746094 7.746094v62.074219h23.109374v-124.746094c0-2.707031 2.195313-4.902343 4.902344-4.902343 2.707032 0 4.902344 2.195312 4.902344 4.902343v37.796875h18.398438v-54.464844zm0 0" fill="#9331b2"/><path d="m315.054688 242.257812v54.464844h-18.394532v-37.796875c0-2.703125-2.199218-4.902343-4.902344-4.902343-2.710937 0-4.90625 2.199218-4.90625 4.902343v124.742188h-23.105468v-62.070313c0-4.277344-3.46875-7.746094-7.742188-7.746094v-161.449218c18.976563 0 34.367188 15.382812 34.367188 34.367187 0 13.464844-7.75 25.113281-19.023438 30.75h18.96875c13.609375 0 24.738282 11.136719 24.738282 24.738281zm0 0" fill="#5c1b6f"/></svg>